<?xml version="1.0" standalone="no"?>
<svg viewBox="0 0 200 200" xmlns="http://www.w3.org/2000/svg">
  <path fill="#F2F4F8" d="M22.1,-45.2C28.5,-34.6,33.6,-28.4,39.3,-21.6C45.1,-14.8,51.6,-7.4,59.1,4.3C66.5,16,74.9,32.1,67.2,35.5C59.5,39,35.7,29.8,21.9,28.5C8,27.2,4,33.7,0.2,33.4C-3.6,33.1,-7.2,26,-14.8,23.6C-22.4,21.3,-33.9,23.8,-36.5,20.6C-39.1,17.5,-32.7,8.8,-37.5,-2.8C-42.3,-14.3,-58.4,-28.7,-61.4,-41.5C-64.5,-54.3,-54.5,-65.7,-42,-72.8C-29.6,-79.9,-14.8,-82.9,-3.5,-76.9C7.8,-70.8,15.7,-55.8,22.1,-45.2Z" transform="translate(100 100)" />
</svg>
